<svg width="94" height="131" viewBox="0 0 94 131" fill="none" xmlns="http://www.w3.org/2000/svg">
<path d="M87.0527 57.6898C83.0527 89.1898 65.0527 110.19 48.0527 121.69C35.0527 116.69 8.05273 88.0654 8.05273 57.6898C8.05273 27.3141 24.8421 2.68976 45.5527 2.68976C66.2634 2.68976 87.0527 27.3141 87.0527 57.6898Z" fill="white"/>
<path d="M46.5716 0C20.911 0 0 20.9209 0 46.5815C0 64.8738 11.0344 84.9318 21.717 100.956C32.3996 116.98 43.0976 128.829 43.0976 128.829C43.5342 129.313 44.0674 129.699 44.6626 129.963C45.2579 130.228 45.902 130.365 46.5534 130.365C47.2048 130.365 47.8489 130.228 48.4442 129.963C49.0394 129.699 49.5726 129.313 50.0092 128.829C50.0092 128.829 60.7072 116.98 71.3898 100.956C82.0724 84.9318 93.1068 64.8738 93.1068 46.5815C93.1068 20.9209 72.2322 0 46.5716 0V0ZM46.5716 9.31264C67.1993 9.31264 83.7943 25.9537 83.7943 46.5815C83.7943 60.8828 73.9211 80.393 63.6506 95.7988C55.1086 108.612 49.2046 115.086 46.5716 118.107C43.9443 115.093 38.0308 108.62 29.4835 95.7988C19.213 80.393 9.31251 60.8828 9.31251 46.5815C9.31251 25.9537 25.9438 9.31264 46.5716 9.31264V9.31264ZM46.5716 27.9476C36.3404 27.9476 27.9375 36.3503 27.9375 46.5815C27.9375 56.8125 36.3404 65.2057 46.5716 65.2057C56.8028 65.2057 65.1966 56.8125 65.1966 46.5815C65.1966 36.3503 56.8028 27.9476 46.5716 27.9476ZM46.5716 37.2592C51.7699 37.2592 55.8841 41.3831 55.8841 46.5815C55.8841 51.7797 51.7699 55.8932 46.5716 55.893C41.3733 55.8932 37.2591 51.7797 37.2591 46.5815C37.2591 41.3831 41.3733 37.2592 46.5716 37.2592Z" fill="black"/>
</svg>
