<svg width="41" height="41" viewBox="0 0 41 41" fill="none" xmlns="http://www.w3.org/2000/svg">
<rect y="5" width="41" height="31" rx="4" fill="white"/>
<path d="M37.3965 4.88477H3.60352C1.61902 4.88477 0 6.50202 0 8.48828V32.5117C0 34.4912 1.61181 36.1152 3.60352 36.1152H37.3965C39.376 36.1152 41 34.5034 41 32.5117V8.48828C41 6.50875 39.3882 4.88477 37.3965 4.88477ZM36.8989 7.28711L20.5764 23.6097L4.11273 7.28711H36.8989ZM2.40234 32.0143V8.97428L13.972 20.4447L2.40234 32.0143ZM4.10104 33.7129L15.6779 22.136L19.7345 26.1577C20.204 26.6233 20.9618 26.6217 21.4295 26.154L25.3848 22.1987L36.899 33.7129H4.10104ZM38.5977 32.0142L27.0835 20.5L38.5977 8.98573V32.0142Z" fill="black"/>
</svg>
