<svg width="16" height="16" viewBox="0 0 16 16" fill="none" xmlns="http://www.w3.org/2000/svg">
<g clip-path="url(#clip0)">
<path d="M10.6172 0.681885H5.09833C2.55873 0.681885 0.499268 2.74135 0.499268 5.28095V10.7998C0.499268 13.3394 2.55873 15.3989 5.09833 15.3989H10.6172C13.1568 15.3989 15.2163 13.3394 15.2163 10.7998V5.28095C15.2163 2.74135 13.1568 0.681885 10.6172 0.681885ZM13.8366 10.7998C13.8366 12.5751 12.3924 14.0192 10.6172 14.0192H5.09833C3.32309 14.0192 1.87899 12.5751 1.87899 10.7998V5.28095C1.87899 3.50571 3.32309 2.0616 5.09833 2.0616H10.6172C12.3924 2.0616 13.8366 3.50571 13.8366 5.28095V10.7998Z" fill="#121212"/>
<path d="M7.85772 4.36108C5.82585 4.36108 4.17847 6.00847 4.17847 8.04034C4.17847 10.0722 5.82585 11.7196 7.85772 11.7196C9.88962 11.7196 11.537 10.0722 11.537 8.04034C11.537 6.00847 9.88962 4.36108 7.85772 4.36108ZM7.85772 10.3399C6.59022 10.3399 5.55819 9.30784 5.55819 8.04034C5.55819 6.77191 6.59022 5.7408 7.85772 5.7408C9.12522 5.7408 10.1572 6.77191 10.1572 8.04034C10.1572 9.30784 9.12522 10.3399 7.85772 10.3399Z" fill="#121212"/>
<path d="M11.8132 4.57548C12.084 4.57548 12.3035 4.35599 12.3035 4.08523C12.3035 3.81447 12.084 3.59497 11.8132 3.59497C11.5425 3.59497 11.323 3.81447 11.323 4.08523C11.323 4.35599 11.5425 4.57548 11.8132 4.57548Z" fill="#121212"/>
</g>
<defs>
<clipPath id="clip0">
<rect width="14.717" height="14.717" fill="white" transform="translate(0.499268 0.681885)"/>
</clipPath>
</defs>
</svg>
