<?xml version="1.0" standalone="no"?>
<!DOCTYPE svg PUBLIC "-//W3C//DTD SVG 20010904//EN"
 "http://www.w3.org/TR/2001/REC-SVG-20010904/DTD/svg10.dtd">
<svg version="1.0" xmlns="http://www.w3.org/2000/svg"
 width="400.000000pt" height="200.000000pt" viewBox="0 0 400.000000 200.000000"
 preserveAspectRatio="xMidYMid meet">
<metadata>
Created by potrace 1.16, written by Peter Selinger 2001-2019
</metadata>
<g transform="translate(0.000000,200.000000) scale(0.100000,-0.100000)"
fill="#000000" stroke="none">
<path d="M2526 1250 c-65 -20 -92 -84 -63 -145 12 -26 33 -41 101 -74 92 -43
112 -68 100 -117 -12 -49 -101 -67 -190 -39 -31 10 -40 -21 -11 -37 31 -16
145 -16 185 1 56 24 78 92 47 151 -10 20 -39 40 -99 68 -88 43 -112 67 -102
108 13 51 52 60 171 42 24 -4 33 27 10 36 -31 11 -120 15 -149 6z"/>
<path d="M1428 1074 c-3 -171 -4 -176 -27 -195 -28 -23 -81 -25 -121 -4 -25
13 -29 13 -35 -2 -14 -39 88 -66 153 -41 63 23 72 55 72 251 0 158 -1 167 -19
167 -19 0 -20 -10 -23 -176z"/>
<path d="M3793 1233 c-10 -3 -13 -48 -13 -172 0 -153 2 -171 20 -194 24 -30
64 -41 114 -31 26 4 36 11 36 25 0 16 -6 17 -48 12 -73 -8 -82 5 -82 128 l0
99 60 0 c53 0 60 2 60 20 0 18 -7 20 -60 20 l-60 0 0 50 c0 49 -3 53 -27 43z"/>
<path d="M1612 1143 c-16 -3 -22 -10 -18 -20 3 -8 6 -16 6 -18 0 -2 18 -1 39
2 22 3 51 3 64 -1 24 -6 47 -42 47 -77 0 -17 -5 -18 -38 -13 -50 8 -117 -11
-137 -39 -23 -32 -19 -81 9 -114 23 -26 30 -28 98 -28 115 0 111 -5 107 135
-4 114 -5 121 -31 146 -20 20 -38 27 -75 30 -26 1 -58 0 -71 -3z"/>
<path d="M2202 1143 c-16 -3 -22 -10 -18 -20 3 -8 6 -16 6 -18 0 -2 18 -1 39
2 22 3 51 3 64 -1 24 -6 47 -42 47 -77 0 -17 -5 -18 -38 -13 -50 8 -117 -11
-137 -39 -23 -32 -19 -81 9 -114 23 -26 30 -28 98 -28 115 0 111 -5 107 135
-4 114 -5 121 -31 146 -20 20 -38 27 -75 30 -26 1 -58 0 -71 -3z"/>
<path d="M2853 1135 c-82 -35 -106 -178 -42 -258 26 -34 84 -51 143 -43 36 6
46 11 46 26 0 16 -6 18 -58 13 -52 -5 -61 -3 -89 21 -40 34 -52 95 -30 148 22
52 56 72 117 66 43 -4 50 -3 50 12 0 31 -81 40 -137 15z"/>
<path d="M3093 1139 l-33 -10 0 -149 c0 -143 1 -150 20 -150 18 0 20 8 22 138
l3 137 55 3 c56 3 84 21 52 34 -24 9 -81 8 -119 -3z"/>
<path d="M3465 1141 l-30 -6 -3 -208 c-2 -202 -2 -207 18 -207 18 0 20 6 20
66 0 59 2 65 18 59 40 -17 98 -16 132 2 49 26 73 73 73 143 0 123 -88 181
-228 151z m142 -51 c62 -37 65 -153 6 -199 -29 -23 -79 -27 -118 -9 -24 11
-25 14 -25 113 0 56 3 105 7 108 14 15 99 6 130 -13z"/>
<path d="M1845 1128 c36 -117 53 -165 78 -225 48 -117 69 -101 141 106 40 114
43 134 21 129 -10 -2 -31 -49 -58 -128 -23 -69 -46 -124 -52 -123 -12 2 -59
126 -76 201 -10 44 -16 52 -35 52 -14 0 -22 -5 -19 -12z"/>
</g>
</svg>
