<svg width="16" height="15" viewBox="0 0 16 15" fill="none" xmlns="http://www.w3.org/2000/svg">
<g clip-path="url(#clip0)">
<path d="M15.7785 14.6819V14.6813H15.7823V9.54685C15.7823 7.03501 15.2029 5.1001 12.0567 5.1001C10.5441 5.1001 9.52915 5.87476 9.11477 6.60918H9.07102V5.3346H6.08789V14.6813H9.19415V10.0532C9.19415 8.8346 9.44165 7.65626 11.0585 7.65626C12.6517 7.65626 12.6754 9.04693 12.6754 10.1313V14.6819H15.7785Z" fill="#121212"/>
<path d="M1.02979 5.33521H4.13979V14.682H1.02979V5.33521Z" fill="#121212"/>
<path d="M2.58348 0.681885C1.5891 0.681885 0.782227 1.43497 0.782227 2.36305C0.782227 3.29113 1.5891 4.05997 2.58348 4.05997C3.57785 4.05997 4.38473 3.29113 4.38473 2.36305C4.3841 1.43497 3.57723 0.681885 2.58348 0.681885V0.681885Z" fill="#121212"/>
</g>
<defs>
<clipPath id="clip0">
<rect width="15" height="14" fill="white" transform="translate(0.782227 0.681885)"/>
</clipPath>
</defs>
</svg>
