<svg width="87" height="87" viewBox="0 0 87 87" fill="none" xmlns="http://www.w3.org/2000/svg">
<path d="M5 15.7321C5 10.6159 8.51974 6.17183 13.5 5V5V5C20.1872 2.77093 27.436 6.2549 29.8729 12.8692L33.1511 21.7674C34.7496 26.1062 32.6814 30.9381 28.4387 32.7766V32.7766C24.2463 34.5933 22.1688 39.3394 23.6782 43.6519L25.716 49.4742C27.1684 53.6239 30.3308 56.9513 34.4012 58.6127L45.056 62.9616C49.0587 64.5954 53.6017 62.4501 54.8831 58.321V58.321C56.063 54.5194 60.0476 52.3407 63.8848 53.3993L73.34 56.0076C80.4588 57.9714 84.8276 65.1274 83.3215 72.3568V72.3568C81.9692 78.848 76.2481 83.5 69.6175 83.5H56.5787C53.8789 83.5 51.1985 83.0445 48.6503 82.1526L29.7987 75.5545C25.053 73.8936 20.9489 70.7841 18.0655 66.665L9.33843 54.1978C6.51463 50.1638 5 45.3588 5 40.4347V15.7321Z" fill="white"/>
<path d="M62.6106 87C47.3591 87 31.0723 81.3958 18.338 68.6619C5.62492 55.9487 0 39.6727 0 24.3894C0 10.9199 10.8974 0 24.3894 0C25.4317 0 26.3688 0.634488 26.7559 1.60219L37.6763 28.903C38.1991 30.2101 37.5634 31.6933 36.2566 32.2162L24.2606 37.0144C25.1092 50.8151 36.1871 61.8923 49.9856 62.7397L54.784 50.7438C55.3057 49.4389 56.7884 48.8009 58.0971 49.3239L85.3976 60.2441C86.3653 60.6312 87 61.5683 87 62.6106C87 76.0801 76.1026 87 62.6106 87ZM22.6931 5.17072C12.9314 6.0154 5.09766 14.2012 5.09766 24.3894C5.09766 39.7517 11.0799 54.1945 21.9427 65.0571C32.8053 75.9199 47.2481 81.9023 62.6106 81.9023C72.7956 81.9023 80.9841 74.073 81.8295 64.3069L58.5704 55.0034L54.0567 66.2872C53.6698 67.2549 52.7325 67.8894 51.6902 67.8894C33.7246 67.8894 19.1106 53.2754 19.1106 35.3125C19.1106 34.2704 19.7451 33.3302 20.7128 32.9433L31.9966 28.4296L22.6931 5.17072Z" fill="black"/>
</svg>
