<?xml version="1.0" standalone="no"?>
<!DOCTYPE svg PUBLIC "-//W3C//DTD SVG 20010904//EN"
 "http://www.w3.org/TR/2001/REC-SVG-20010904/DTD/svg10.dtd">
<svg version="1.0" xmlns="http://www.w3.org/2000/svg"
 width="812.000000pt" height="381.000000pt" viewBox="0 0 812.000000 381.000000"
 preserveAspectRatio="xMidYMid meet">
<metadata>
Created by potrace 1.16, written by Peter Selinger 2001-2019
</metadata>
<g transform="translate(0.000000,381.000000) scale(0.100000,-0.100000)"
fill="#000000" stroke="none">
<path d="M1393 3036 c-386 -74 -707 -371 -802 -741 -94 -370 13 -747 287
-1006 207 -196 456 -288 742 -276 153 7 263 33 386 91 128 61 206 116 301 212
175 178 277 410 290 660 26 489 -292 920 -768 1044 -108 28 -331 36 -436 16z
m284 -137 c238 -32 466 -165 605 -352 113 -152 157 -281 165 -487 5 -115 2
-148 -16 -223 -70 -291 -286 -534 -565 -633 -128 -46 -341 -59 -470 -30 -252
59 -465 220 -590 447 -70 127 -96 240 -97 411 0 189 41 325 146 484 108 162
266 282 453 344 139 46 241 57 369 39z"/>
<path d="M1868 2526 c-172 -138 -528 -436 -528 -441 0 -3 67 -5 149 -5 l148 0
160 243 c197 299 196 297 192 297 -2 0 -57 -43 -121 -94z"/>
<path d="M1345 1716 c-96 -145 -175 -267 -175 -270 0 -4 46 30 103 76 176 142
547 450 547 454 0 2 -68 4 -150 4 l-151 0 -174 -264z"/>
<path d="M5020 2079 l0 -419 70 0 70 0 0 96 c0 81 3 100 21 125 11 16 23 29
27 29 4 0 43 -56 87 -125 l80 -125 88 0 88 0 -33 48 c-18 26 -72 102 -121 170
l-88 123 101 111 c55 61 97 114 93 118 -5 3 -43 4 -85 2 l-78 -4 -87 -118 -88
-119 -5 252 -5 252 -67 2 -68 1 0 -419z"/>
<path d="M6712 2450 c-29 -27 -29 -83 -2 -110 31 -31 93 -27 119 6 28 35 26
69 -4 99 -30 31 -82 33 -113 5z"/>
<path d="M6183 2377 l-43 -10 0 -62 c0 -68 -6 -75 -59 -75 -26 0 -27 -2 -26
-50 l0 -50 43 0 42 0 0 -175 c0 -194 6 -223 58 -267 37 -31 94 -42 162 -33
l50 7 0 54 0 54 -45 0 c-32 0 -51 6 -65 20 -18 18 -20 33 -20 180 l0 160 71 0
71 0 -4 51 -3 52 -67 -1 -68 0 0 79 0 79 -27 -1 c-16 -1 -47 -6 -70 -12z"/>
<path d="M3616 2239 c-88 -22 -146 -88 -146 -169 0 -66 34 -112 114 -149 35
-17 68 -31 73 -31 19 0 63 -49 63 -70 0 -11 -9 -29 -20 -40 -24 -24 -113 -27
-175 -5 -22 8 -43 11 -46 7 -3 -4 -11 -26 -16 -49 l-11 -42 39 -15 c21 -8 66
-18 102 -22 166 -17 292 87 258 213 -17 63 -45 89 -146 137 -65 31 -95 51 -96
63 -2 33 2 48 19 61 21 16 104 15 146 -2 l33 -14 11 44 c7 25 12 48 12 53 0
25 -149 46 -214 30z"/>
<path d="M4110 2240 c-143 -30 -233 -170 -216 -334 15 -141 112 -238 254 -252
215 -23 367 171 307 391 -39 145 -185 228 -345 195z m161 -139 c71 -85 63
-257 -15 -316 -45 -34 -107 -34 -152 0 -90 68 -80 287 15 340 17 10 44 14 76
11 41 -3 54 -9 76 -35z"/>
<path d="M4743 2240 c-122 -25 -198 -99 -229 -222 -38 -146 24 -282 155 -342
85 -38 300 -21 287 22 -3 10 -8 34 -11 54 -7 34 -9 36 -32 27 -40 -15 -135
-11 -173 9 -116 58 -119 257 -3 324 33 20 93 25 160 14 40 -7 41 -7 47 29 4
20 10 43 13 51 3 8 -4 17 -19 23 -38 14 -149 21 -195 11z"/>
<path d="M5717 2235 c-128 -35 -208 -171 -194 -328 10 -110 68 -193 165 -234
47 -21 196 -23 270 -4 l54 13 -7 47 c-4 25 -8 48 -10 50 -2 2 -34 -2 -70 -9
-123 -23 -216 5 -249 74 -32 68 -37 66 174 66 l190 0 1 28 c3 83 -4 122 -32
179 -33 69 -67 98 -136 119 -55 17 -92 17 -156 -1z m145 -112 c22 -19 48 -72
48 -98 0 -13 -19 -15 -125 -15 -71 0 -125 4 -125 9 0 38 47 105 85 122 30 13
94 3 117 -18z"/>
<path d="M7133 2240 c-127 -27 -211 -129 -221 -269 -6 -91 16 -164 68 -223 58
-67 117 -92 216 -92 70 -1 88 3 139 29 71 36 118 94 141 172 31 106 0 244 -69
311 -63 61 -180 92 -274 72z m126 -115 c97 -50 108 -271 17 -340 -24 -19 -45
-25 -80 -25 -41 0 -53 5 -81 33 -82 82 -68 282 23 332 35 19 86 19 121 0z"/>
<path d="M6758 2230 l-68 -5 3 -280 2 -280 73 -3 72 -3 0 285 c0 157 -3 286
-7 288 -5 2 -38 1 -75 -2z"/>
<path d="M6502 1825 c-58 -25 -69 -99 -23 -146 35 -35 77 -38 114 -9 55 43 40
136 -24 159 -18 6 -32 11 -33 11 -1 -1 -16 -7 -34 -15z"/>
</g>
</svg>
