<svg width="15" height="16" viewBox="0 0 15 16" fill="none" xmlns="http://www.w3.org/2000/svg">
<g clip-path="url(#clip0)">
<path d="M14.9333 3.47712C14.386 3.71719 13.8028 3.87631 13.1949 3.95358C13.8203 3.58013 14.2978 2.99329 14.5222 2.28596C13.939 2.63365 13.2951 2.87924 12.6089 3.01629C12.0552 2.42669 11.266 2.06152 10.405 2.06152C8.73466 2.06152 7.38993 3.41733 7.38993 5.07943C7.38993 5.31858 7.41016 5.54853 7.45983 5.76745C4.95151 5.64511 2.732 4.44292 1.24098 2.61157C0.980673 3.0632 0.827984 3.58013 0.827984 4.13662C0.827984 5.18153 1.36607 6.10778 2.16815 6.64403C1.68341 6.63483 1.20787 6.4941 0.804989 6.27243C0.804989 6.28162 0.804989 6.29358 0.804989 6.30554C0.804989 7.77172 1.85082 8.98955 3.22226 9.27006C2.97667 9.33724 2.709 9.3694 2.43122 9.3694C2.23806 9.3694 2.04306 9.35836 1.86001 9.31789C2.25093 10.5128 3.36023 11.3911 4.67924 11.4197C3.65273 12.2227 2.34935 12.7065 0.938362 12.7065C0.690932 12.7065 0.45362 12.6954 0.216309 12.6651C1.5528 13.527 3.13671 14.0191 4.84481 14.0191C10.3968 14.0191 13.4322 9.42003 13.4322 5.43356C13.4322 5.30018 13.4275 5.17141 13.4211 5.04356C14.0199 4.6186 14.5231 4.08787 14.9333 3.47712Z" fill="#121212"/>
</g>
<defs>
<clipPath id="clip0">
<rect width="14.717" height="14.717" fill="white" transform="translate(0.216309 0.681885)"/>
</clipPath>
</defs>
</svg>
