<?xml version="1.0" standalone="no"?>
<!DOCTYPE svg PUBLIC "-//W3C//DTD SVG 20010904//EN"
 "http://www.w3.org/TR/2001/REC-SVG-20010904/DTD/svg10.dtd">
<svg version="1.0" xmlns="http://www.w3.org/2000/svg"
 width="750.000000pt" height="140.000000pt" viewBox="0 0 750.000000 140.000000"
 preserveAspectRatio="xMidYMid meet">

<g transform="translate(0.000000,140.000000) scale(0.100000,-0.100000)"
fill="#000000" stroke="none">
<path d="M3760 1339 c-122 -18 -216 -102 -246 -219 l-11 -45 -60 -1 c-143 -3
-250 -81 -289 -210 -37 -124 9 -253 117 -326 33 -23 47 -38 42 -48 -68 -165
-14 -321 140 -402 64 -34 184 -32 254 4 28 15 60 39 71 53 l20 25 48 -40 c188
-155 467 -36 482 207 5 78 -21 168 -47 158 -9 -4 -42 -12 -73 -18 -42 -8 -58
-16 -58 -28 0 -8 -10 -25 -23 -37 -21 -20 -34 -22 -140 -22 l-117 0 -196 -101
c-107 -56 -198 -99 -201 -95 -3 3 6 45 21 93 14 49 26 91 26 96 0 4 -16 7 -35
7 -22 0 -43 8 -55 20 -19 19 -20 33 -20 269 l0 250 27 21 c26 20 36 20 342 20
l316 -1 3 61 c9 190 -151 337 -338 309z"/>
<path d="M6853 1235 c-154 -42 -271 -153 -330 -311 -34 -93 -44 -286 -19 -384
25 -99 79 -201 139 -261 91 -93 191 -129 354 -129 161 0 277 47 359 147 68 82
102 201 73 255 -14 26 -69 49 -100 41 -38 -9 -50 -23 -81 -93 -41 -90 -69
-124 -130 -154 -40 -20 -67 -26 -116 -26 -94 0 -139 17 -199 75 -70 68 -94
145 -94 300 -1 153 24 228 101 307 62 63 99 78 195 78 103 -1 175 -49 237
-158 36 -63 61 -82 108 -82 85 0 111 95 55 198 -50 93 -151 167 -270 198 -64
18 -215 17 -282 -1z"/>
<path d="M4715 1231 c-54 -14 -74 -30 -85 -69 -6 -23 -10 -203 -10 -475 0
-463 2 -489 48 -523 27 -21 95 -17 125 6 39 31 47 77 47 273 l0 177 70 0 c129
0 160 -27 312 -278 54 -88 109 -167 123 -176 13 -9 44 -16 68 -16 56 0 97 34
97 79 0 73 -116 267 -216 361 -38 35 -60 62 -52 64 117 34 182 80 221 156 26
50 28 62 25 140 -5 102 -26 149 -94 209 -74 65 -111 72 -399 76 -137 3 -263 1
-280 -4z m485 -180 c69 -36 97 -140 53 -199 -43 -58 -73 -67 -250 -70 l-163
-4 0 153 0 152 163 -7 c127 -5 170 -11 197 -25z"/>
<path d="M5600 1233 c-64 -12 -93 -93 -51 -144 18 -23 25 -24 170 -27 l151 -3
0 -397 c0 -241 4 -412 10 -434 29 -104 171 -104 200 0 6 22 10 193 10 434 l0
397 150 3 c137 3 151 5 171 24 32 32 30 88 -4 122 l-27 27 -378 1 c-207 1
-388 0 -402 -3z"/>
<path d="M89 1171 c-21 -21 -29 -39 -29 -63 0 -30 163 -710 204 -851 21 -74
60 -107 125 -107 53 0 84 18 106 60 8 15 56 178 106 362 50 183 94 339 98 345
4 7 20 -36 35 -95 106 -395 158 -577 172 -608 44 -92 184 -83 222 13 25 61
212 837 212 878 0 36 -5 48 -31 69 -53 45 -119 31 -144 -28 -8 -18 -46 -177
-85 -352 -40 -175 -73 -321 -75 -323 -2 -1 -9 17 -15 40 -53 200 -160 589
-168 609 -5 14 -22 36 -37 50 -36 33 -131 36 -165 5 -37 -33 -46 -61 -131
-376 -44 -167 -84 -309 -88 -316 -3 -7 -37 124 -74 290 -37 166 -72 319 -78
341 -24 86 -102 114 -160 57z"/>
<path d="M2299 1187 c-38 -29 -39 -44 -39 -522 l0 -466 25 -24 c51 -52 145
-16 145 55 0 16 3 30 6 30 3 0 26 -18 51 -39 61 -54 126 -75 217 -69 83 6 134
29 188 85 106 110 138 343 67 502 -45 103 -148 171 -262 174 -83 2 -144 -17
-206 -64 -28 -21 -54 -39 -56 -39 -3 0 -5 77 -5 170 0 168 0 171 -25 195 -27
27 -79 33 -106 12z m429 -443 c55 -42 77 -103 77 -209 0 -107 -22 -167 -79
-210 -75 -57 -189 -36 -241 44 -63 96 -46 293 32 363 59 54 149 58 211 12z"/>
<path d="M1660 905 c-113 -32 -191 -101 -232 -204 -18 -46 -22 -76 -23 -171 0
-106 2 -120 29 -178 42 -90 116 -155 208 -183 58 -18 87 -21 167 -17 141 7
235 54 281 141 29 55 22 91 -21 106 -37 13 -56 5 -115 -50 -53 -47 -92 -68
-148 -75 -106 -15 -193 57 -212 175 l-7 41 222 0 c246 0 282 7 302 57 15 38 5
120 -21 182 -28 65 -112 143 -177 166 -69 24 -186 28 -253 10z m201 -145 c34
-25 63 -78 73 -132 l7 -38 -176 0 -177 0 7 33 c22 110 95 173 188 163 26 -3
61 -15 78 -26z"/>
</g>
</svg>
